<svg width="512" height="384" viewBox="0 0 512 384" fill="none" xmlns="http://www.w3.org/2000/svg">
<path d="M464 -0.000244141H48.0003C21.5313 -0.000244141 0 21.5311 0 48.0001V336C0 362.469 21.5313 384 48.0003 384H464C490.469 384 512 362.469 512 336V48.0001C512 21.5311 490.469 -0.000244141 464 -0.000244141V-0.000244141ZM464 31.9996C466.174 31.9996 468.242 32.4506 470.132 33.2383L256 218.828L41.8667 33.2383C43.7573 32.4517 45.8254 31.9996 47.9993 31.9996H464ZM464 351.999H48.0003C39.1723 351.999 31.9999 344.828 31.9999 335.999V67.0465L245.515 252.093C248.531 254.702 252.266 256 256 256C259.734 256 263.469 254.703 266.485 252.093L480 67.0465V336C479.999 344.828 472.828 351.999 464 351.999V351.999Z" fill="white"/>
</svg>
