<svg width="30" height="34" viewBox="0 0 30 34" fill="none" xmlns="http://www.w3.org/2000/svg">
<path d="M28.75 18.3873H1.25C0.559998 18.3873 0 17.7526 0 16.9706C0 16.1886 0.559998 15.554 1.25 15.554H28.75C29.44 15.554 30 16.1886 30 16.9706C30 17.7526 29.44 18.3873 28.75 18.3873Z" fill="white"/>
<path d="M28.75 7.52602H1.25C0.559998 7.52602 0 6.89136 0 6.10935C0 5.32735 0.559998 4.69269 1.25 4.69269H28.75C29.44 4.69269 30 5.32735 30 6.10935C30 6.89136 29.44 7.52602 28.75 7.52602Z" fill="white"/>
<path d="M28.75 29.2481H1.25C0.559998 29.2481 0 28.6135 0 27.8315C0 27.0495 0.559998 26.4148 1.25 26.4148H28.75C29.44 26.4148 30 27.0495 30 27.8315C30 28.6135 29.44 29.2481 28.75 29.2481Z" fill="white"/>
</svg>
