<svg width="80" height="80" viewBox="0 0 80 80" fill="none" xmlns="http://www.w3.org/2000/svg">
<path d="M58.3267 47.94C57.3233 47.44 52.4367 45.05 51.5267 44.72C50.6167 44.3833 49.95 44.22 49.2833 45.22C48.6267 46.2033 46.7133 48.4333 46.1367 49.0933C45.5533 49.7433 44.9733 49.7933 43.9833 49.3433C42.9833 48.8433 39.7733 47.7933 35.9733 44.3933C33.0133 41.7433 31.0267 38.4933 30.44 37.4933C29.86 36.4933 30.3767 35.9433 30.8733 35.4433C31.3267 34.9933 31.8767 34.2933 32.3767 33.7C32.8633 33.0967 33.0233 32.6967 33.3667 32.0467C33.7 31.3467 33.53 30.7967 33.2833 30.3C33.0333 29.8 31.0433 24.9 30.21 22.9467C29.41 21 28.5867 21.2467 27.97 21.2467C27.3967 21.1967 26.7333 21.1967 26.0667 21.1967C25.4 21.1967 24.3233 21.4433 23.41 22.3933C22.5 23.3933 19.9267 25.7933 19.9267 30.6433C19.9267 35.4933 23.4933 40.1933 23.99 40.8933C24.4867 41.5433 31.0067 51.5433 40.99 55.8433C43.37 56.8433 45.2233 57.4433 46.67 57.94C49.05 58.6967 51.22 58.59 52.9367 58.3433C54.85 58.04 58.8267 55.94 59.6567 53.59C60.5067 51.24 60.5067 49.29 60.2567 48.84C60.01 48.39 59.3567 48.14 58.3567 47.69L58.3267 47.94ZM40.2033 72.5H40.15C34.25 72.5 28.4033 70.9 23.3 67.9L22.1 67.1867L9.6 70.4367L12.95 58.2867L12.1533 57.0367C8.84927 51.7857 7.09743 45.7074 7.1 39.5033C7.1 21.3533 21.95 6.55333 40.24 6.55333C44.5886 6.5424 48.8961 7.39408 52.9133 9.05909C56.9305 10.7241 60.5775 13.1694 63.6433 16.2533C66.7258 19.2986 69.1709 22.9274 70.8357 26.9278C72.5006 30.9283 73.3519 35.2203 73.34 39.5533C73.3267 57.7 58.4733 72.5033 40.2233 72.5033L40.2033 72.5ZM68.4 11.4967C60.8 4.15 50.8 0 40.15 0C18.21 0 0.346667 17.78 0.336667 39.6433C0.336667 46.63 2.16667 53.4433 5.65333 59.46L0 80L21.1167 74.4933C26.965 77.6494 33.5044 79.3066 40.15 79.3167H40.17C62.12 79.3167 79.99 61.53 80 39.6633C80 29.0767 75.8667 19.1133 68.35 11.6267" fill="white"/>
</svg>
